# Blender v2.93.4 OBJ File: 'McWorkMcfaceAll.blend'
# www.blender.org
mtllib Michal.mtl
o Cube.012_Cube.004
v -1.406074 0.119543 -0.663191
v -1.132048 0.240276 -0.909187
v -0.403993 -0.746960 1.102327
v -0.021232 -0.720250 1.047905
v 0.324061 -0.642735 0.889966
v 0.598087 -0.522002 0.643970
v 0.774023 -0.369869 0.333997
v 0.834646 -0.201229 -0.009611
v 0.774023 -0.032589 -0.353219
v 0.598087 0.119543 -0.663191
v 0.324061 0.240276 -0.909187
v -0.021233 0.317791 -1.067127
v -0.403993 0.344501 -1.121548
v -0.786754 0.317791 -1.067126
v -1.582010 -0.032590 -0.353218
v -1.642632 -0.201230 -0.009610
v -1.582009 -0.369870 0.333998
v -1.406073 -0.522002 0.643971
v -1.132046 -0.642735 0.889967
v -0.786752 -0.720250 1.047906
v -1.406073 -0.588676 0.611248
v -1.132046 -0.709409 0.857244
v -1.132048 0.173602 -0.941910
v -0.786754 0.251117 -1.099849
v 0.598087 0.052869 -0.695914
v 0.324061 0.173602 -0.941910
v -0.403993 -0.813635 1.069604
v -0.021232 -0.786925 1.015182
v -0.786752 -0.786925 1.015183
v -0.021233 0.251117 -1.099850
v -0.403993 0.277827 -1.154271
v 0.324061 -0.709409 0.857243
v 0.598087 -0.588676 0.611247
v 0.774023 -0.436543 0.301274
v 0.834646 -0.267903 -0.042334
v -1.582010 -0.099264 -0.385941
v -1.642632 -0.267904 -0.042333
v 0.774023 -0.099263 -0.385942
v -1.582009 -0.436544 0.301275
v -1.406074 0.052869 -0.695914
vt 1.223646 0.701503
vt 1.223646 0.719612
vt 1.218406 0.736725
vt 1.208437 0.751167
vt 1.194717 0.761525
vt 1.178587 0.766784
vt 1.161628 0.766430
vt 1.145499 0.760497
vt 1.131778 0.749567
vt 1.121810 0.734708
vt 1.116569 0.717376
vt 1.116569 0.699267
vt 1.121810 0.682154
vt 1.131778 0.667712
vt 1.145499 0.657354
vt 1.161628 0.652095
vt 1.178587 0.652449
vt 1.194717 0.658382
vt 1.208437 0.669312
vt 1.218406 0.684171
vt 1.223646 0.701503
vt 1.218406 0.684171
vt 1.208437 0.669312
vt 1.194717 0.658382
vt 1.178587 0.652449
vt 1.161628 0.652095
vt 1.145499 0.657354
vt 1.131778 0.667712
vt 1.121810 0.682154
vt 1.116569 0.699267
vt 1.116569 0.717376
vt 1.121810 0.734708
vt 1.131778 0.749567
vt 1.145499 0.760497
vt 1.161628 0.766430
vt 1.178587 0.766784
vt 1.194717 0.761525
vt 1.208437 0.751167
vt 1.218406 0.736725
vt 1.223646 0.719612
vn -0.0000 0.8977 0.4406
vn 0.0000 -0.8977 -0.4406
vn -0.4540 -0.3926 0.7999
vn 0.9877 0.0689 -0.1404
vn 0.1564 0.4352 -0.8867
vn -0.7071 -0.3115 0.6348
vn -0.9877 -0.0689 0.1404
vn 0.4540 -0.3926 0.7999
vn -0.4540 0.3926 -0.7999
vn -0.8910 -0.2000 0.4076
vn -0.1564 0.4352 -0.8867
vn 0.7071 0.3115 -0.6348
vn -0.7071 0.3115 -0.6348
vn 0.7071 -0.3115 0.6348
vn 0.1564 -0.4352 0.8867
vn 0.8910 0.2000 -0.4076
vn 0.8910 -0.2000 0.4076
vn -0.1564 -0.4352 0.8867
vn -0.8910 0.2000 -0.4076
vn 0.9877 -0.0689 0.1404
vn 0.4540 0.3926 -0.7999
vn -0.9877 0.0689 -0.1404
usemtl Metal
s off
f 3/1/1 4/2/1 5/3/1 6/4/1 7/5/1 8/6/1 9/7/1 10/8/1 11/9/1 12/10/1 13/11/1 14/12/1 2/13/1 1/14/1 15/15/1 16/16/1 17/17/1 18/18/1 19/19/1 20/20/1
f 27/21/2 29/22/2 22/23/2 21/24/2 39/25/2 37/26/2 36/27/2 40/28/2 23/29/2 24/30/2 31/31/2 30/32/2 26/33/2 25/34/2 38/35/2 35/36/2 34/37/2 33/38/2 32/39/2 28/40/2
f 19/19/3 22/23/3 29/22/3 20/20/3
f 8/6/4 35/36/4 38/35/4 9/7/4
f 12/10/5 30/32/5 31/31/5 13/11/5
f 18/18/6 21/24/6 22/23/6 19/19/6
f 16/16/7 37/26/7 39/25/7 17/17/7
f 4/2/8 28/40/8 32/39/8 5/3/8
f 14/12/9 24/30/9 23/29/9 2/13/9
f 17/17/10 39/25/10 21/24/10 18/18/10
f 13/11/11 31/31/11 24/30/11 14/12/11
f 10/8/12 25/34/12 26/33/12 11/9/12
f 2/13/13 23/29/13 40/28/13 1/14/13
f 5/3/14 32/39/14 33/38/14 6/4/14
f 3/1/15 27/21/15 28/40/15 4/2/15
f 9/7/16 38/35/16 25/34/16 10/8/16
f 6/4/17 33/38/17 34/37/17 7/5/17
f 20/20/18 29/22/18 27/21/18 3/1/18
f 1/14/19 40/28/19 36/27/19 15/15/19
f 7/5/20 34/37/20 35/36/20 8/6/20
f 11/9/21 26/33/21 30/32/21 12/10/21
f 15/15/22 36/27/22 37/26/22 16/16/22
